{
  "source": "C:\\Users\\Peter\\Desktop\\stuff\\MIUN\\quantitative_research\\video_compression\\videos\\HEVC_CLASS_B\\BQTerrace_1920x1080_60.y4m",
  "output": "C:\\Users\\Peter\\Desktop\\stuff\\MIUN\\quantitative_research\\video_compression\\compressed_videos\\HEVC_CLASS_B\\h264\\1.5\\BQTerrace_1920x1080_60_h264.mp4",
  "codec": "h264",
  "ok": "Input #0, yuv4mpegpipe, from 'C:\\Users\\Peter\\Desktop\\stuff\\MIUN\\quantitative_research\\video_compression\\videos\\HEVC_CLASS_B\\BQTerrace_1920x1080_60.y4m':\n  Duration: 00:00:10.00, start: 0.000000, bitrate: 1492994 kb/s\n  Stream #0:0: Video: rawvideo (I420 / 0x30323449), yuv420p(progressive), 1920x1080, 60 fps, 60 tbr, 60 tbn\n[out#0/mp4 @ 00000203a2719a40] Codec AVOption b:a (set bitrate (in bits/s)) has not been used for any stream. The most likely reason is either wrong type (e.g. a video option with no video streams) or that it is a private option of some decoder which was not actually used for any stream.\nStream mapping:\n  Stream #0:0 -> #0:0 (rawvideo (native) -> h264 (libx264))\nPress [q] to stop, [?] for help\n[libx264 @ 00000203a271cac0] using cpu capabilities: MMX2 SSE2Fast SSSE3 SSE4.2 AVX FMA3 BMI2 AVX2\n[libx264 @ 00000203a271cac0] profile High, level 5.0, 4:2:0, 8-bit\n[libx264 @ 00000203a271cac0] 264 - core 165 r3222 b35605a - H.264/MPEG-4 AVC codec - Copyleft 2003-2025 - http://www.videolan.org/x264.html - options: cabac=1 ref=5 deblock=1:0:0 analyse=0x3:0x113 me=hex subme=8 psy=1 psy_rd=1.00:0.00 mixed_ref=1 me_range=16 chroma_me=1 trellis=2 8x8dct=1 cqm=0 deadzone=21,11 fast_pskip=1 chroma_qp_offset=-2 threads=18 lookahead_threads=3 sliced_threads=0 nr=0 decimate=1 interlaced=0 bluray_compat=0 constrained_intra=0 bframes=3 b_pyramid=2 b_adapt=1 b_bias=0 direct=3 weightb=1 open_gop=0 weightp=2 keyint=250 keyint_min=25 scenecut=40 intra_refresh=0 rc_lookahead=50 rc=cbr mbtree=1 bitrate=1500 ratetol=1.0 qcomp=0.60 qpmin=0 qpmax=69 qpstep=4 vbv_maxrate=1500 vbv_bufsize=1500 nal_hrd=none filler=0 ip_ratio=1.40 aq=1:1.00\nOutput #0, mp4, to 'C:\\Users\\Peter\\Desktop\\stuff\\MIUN\\quantitative_research\\video_compression\\compressed_videos\\HEVC_CLASS_B\\h264\\1.5\\BQTerrace_1920x1080_60_h264.mp4':\n  Metadata:\n    encoder         : Lavf62.3.100\n  Stream #0:0: Video: h264 (avc1 / 0x31637661), yuv420p(tv, progressive), 1920x1080, q=2-31, 1500 kb/s, 60 fps, 15360 tbn\n    Metadata:\n      encoder         : Lavc62.11.100 libx264\n    Side data:\n      cpb: bitrate max/min/avg: 1500000/0/1500000 buffer size: 1500000 vbv_delay: N/A\nframe=    0 fps=0.0 q=0.0 size=       0KiB time=N/A bitrate=N/A speed=N/A elapsed=0:00:00.51    \nframe=    0 fps=0.0 q=0.0 size=       0KiB time=N/A bitrate=N/A speed=N/A elapsed=0:00:01.06    \nframe=    0 fps=0.0 q=0.0 size=       0KiB time=N/A bitrate=N/A speed=N/A elapsed=0:00:01.67    \nframe=    8 fps=3.5 q=50.0 size=       0KiB time=00:00:00.03 bitrate=  11.5kbits/s speed=0.0144x elapsed=0:00:02.31    \nframe=   36 fps= 12 q=45.0 size=       0KiB time=00:00:00.43 bitrate=   0.9kbits/s speed=0.147x elapsed=0:00:02.95    \nframe=   60 fps= 16 q=44.0 size=       0KiB time=00:00:00.96 bitrate=   0.4kbits/s speed=0.263x elapsed=0:00:03.67    \nframe=   80 fps= 19 q=44.0 size=       0KiB time=00:00:01.16 bitrate=   0.3kbits/s speed=0.276x elapsed=0:00:04.22    \nframe=  104 fps= 21 q=44.0 size=       0KiB time=00:00:01.56 bitrate=   0.2kbits/s speed=0.317x elapsed=0:00:04.93    \nframe=  125 fps= 22 q=44.0 size=     256KiB time=00:00:02.00 bitrate=1048.8kbits/s speed=0.352x elapsed=0:00:05.67    \nframe=  152 fps= 24 q=43.0 size=     256KiB time=00:00:02.50 bitrate= 839.0kbits/s speed=0.397x elapsed=0:00:06.29    \nframe=  180 fps= 26 q=43.0 size=     256KiB time=00:00:02.86 bitrate= 731.7kbits/s speed=0.417x elapsed=0:00:06.87    \nframe=  196 fps= 26 q=44.0 size=     256KiB time=00:00:03.23 bitrate= 648.7kbits/s speed=0.427x elapsed=0:00:07.58    \nframe=  220 fps= 27 q=44.0 size=     256KiB time=00:00:03.56 bitrate= 588.1kbits/s speed=0.438x elapsed=0:00:08.15    \nframe=  233 fps= 27 q=44.0 size=     512KiB time=00:00:03.85 bitrate=1089.5kbits/s speed=0.441x elapsed=0:00:08.73    \nframe=  246 fps= 26 q=45.0 size=     512KiB time=00:00:03.93 bitrate=1066.4kbits/s speed=0.422x elapsed=0:00:09.31    \nframe=  270 fps= 27 q=44.0 size=     512KiB time=00:00:04.46 bitrate= 939.1kbits/s speed=0.449x elapsed=0:00:09.95    \nframe=  289 fps= 28 q=44.0 size=     512KiB time=00:00:04.76 bitrate= 880.0kbits/s speed=0.454x elapsed=0:00:10.49    \nframe=  310 fps= 28 q=44.0 size=     512KiB time=00:00:05.13 bitrate= 817.1kbits/s speed=0.466x elapsed=0:00:11.02    \nframe=  330 fps= 29 q=44.0 size=     768KiB time=00:00:05.46 bitrate=1150.9kbits/s speed=0.474x elapsed=0:00:11.53    \nframe=  354 fps= 29 q=44.0 size=     768KiB time=00:00:05.80 bitrate=1084.8kbits/s speed=0.48x elapsed=0:00:12.07    \nframe=  386 fps= 30 q=44.0 size=     768KiB time=00:00:06.33 bitrate= 993.4kbits/s speed=0.498x elapsed=0:00:12.71    \nframe=  410 fps= 31 q=44.0 size=     768KiB time=00:00:06.73 bitrate= 934.4kbits/s speed=0.506x elapsed=0:00:13.30    \nframe=  434 fps= 31 q=44.0 size=     768KiB time=00:00:07.20 bitrate= 873.9kbits/s speed=0.52x elapsed=0:00:13.84    \nframe=  458 fps= 32 q=45.0 size=    1024KiB time=00:00:07.60 bitrate=1103.8kbits/s speed=0.529x elapsed=0:00:14.35    \nframe=  483 fps= 32 q=45.0 size=    1024KiB time=00:00:08.00 bitrate=1048.6kbits/s speed=0.536x elapsed=0:00:14.91    \nframe=  492 fps= 32 q=46.0 size=    1024KiB time=00:00:08.10 bitrate=1035.7kbits/s speed=0.523x elapsed=0:00:15.47    \nframe=  516 fps= 32 q=44.0 size=    1024KiB time=00:00:08.56 bitrate= 979.3kbits/s speed=0.534x elapsed=0:00:16.04    \nframe=  546 fps= 33 q=43.0 size=    1024KiB time=00:00:09.06 bitrate= 925.3kbits/s speed=0.547x elapsed=0:00:16.58    \nframe=  585 fps= 34 q=-1.0 size=    1280KiB time=00:00:09.70 bitrate=1081.0kbits/s speed=0.566x elapsed=0:00:17.13    \n[mp4 @ 00000203a2719b40] Starting second pass: moving the moov atom to the beginning of the file\n[out#0/mp4 @ 00000203a2719a40] video:1379KiB audio:0KiB subtitle:0KiB other streams:0KiB global headers:0KiB muxing overhead: 0.570679%\nframe=  600 fps= 34 q=-1.0 Lsize=    1387KiB time=00:00:09.96 bitrate=1140.0kbits/s speed=0.571x elapsed=0:00:17.45    \n[libx264 @ 00000203a271cac0] frame I:3     Avg QP:41.19  size: 40572\n[libx264 @ 00000203a271cac0] frame P:151   Avg QP:41.99  size:  4087\n[libx264 @ 00000203a271cac0] frame B:446   Avg QP:47.02  size:  1508\n[libx264 @ 00000203a271cac0] consecutive B-frames:  0.8%  0.0%  0.5% 98.7%\n[libx264 @ 00000203a271cac0] mb I  I16..4: 33.7% 57.8%  8.5%\n[libx264 @ 00000203a271cac0] mb P  I16..4:  0.2%  0.2%  0.0%  P16..4: 15.7%  1.3%  2.1%  0.0%  0.0%    skip:80.3%\n[libx264 @ 00000203a271cac0] mb B  I16..4:  0.0%  0.0%  0.0%  B16..8: 24.0%  0.1%  0.0%  direct: 0.0%  skip:75.9%  L0:36.7% L1:63.3% BI: 0.0%\n[libx264 @ 00000203a271cac0] 8x8 transform intra:56.2% inter:73.8%\n[libx264 @ 00000203a271cac0] direct mvs  spatial:97.8% temporal:2.2%\n[libx264 @ 00000203a271cac0] coded y,uvDC,uvAC intra: 34.1% 23.4% 4.2% inter: 0.5% 0.3% 0.0%\n[libx264 @ 00000203a271cac0] i16 v,h,dc,p: 36% 37%  5% 22%\n[libx264 @ 00000203a271cac0] i8 v,h,dc,ddl,ddr,vr,hd,vl,hu: 12%  6% 22%  7%  8%  6%  9%  6% 24%\n[libx264 @ 00000203a271cac0] i4 v,h,dc,ddl,ddr,vr,hd,vl,hu: 12%  7% 13%  8%  8%  8%  9%  9% 25%\n[libx264 @ 00000203a271cac0] i8c dc,h,v,p: 56% 38%  5%  1%\n[libx264 @ 00000203a271cac0] Weighted P-Frames: Y:9.9% UV:4.6%\n[libx264 @ 00000203a271cac0] ref P L0: 62.5% 15.1% 14.2%  3.8%  3.8%  0.5%\n[libx264 @ 00000203a271cac0] ref B L0: 90.8%  6.7%  1.8%  0.6%\n[libx264 @ 00000203a271cac0] ref B L1: 97.5%  2.5%\n[libx264 @ 00000203a271cac0] kb/s:1129.13\n",
  "seconds": 17.935953617095947,
  "probe_out": {}
}